<svg width="33" height="33" viewBox="0 0 33 33" fill="none" xmlns="http://www.w3.org/2000/svg">
<rect x="6.25" y="5" width="17.5" height="21.25" rx="2" stroke="#13AF82"/>
<path d="M11.25 11.25H18.75" stroke="#13AF82" stroke-linecap="round"/>
<path d="M11.25 16.25H18.75" stroke="#13AF82" stroke-linecap="round"/>
<path d="M11.25 21.25H16.25" stroke="#13AF82" stroke-linecap="round"/>
<circle cx="24.5" cy="24.5" r="6.5" fill="white"/>
<path fill-rule="evenodd" clip-rule="evenodd" d="M24.5 30.875C28.0208 30.875 30.875 28.0208 30.875 24.5C30.875 20.9792 28.0208 18.125 24.5 18.125C20.9792 18.125 18.125 20.9792 18.125 24.5C18.125 28.0208 20.9792 30.875 24.5 30.875ZM28.1016 23.0152C28.4551 22.5909 28.3978 21.9603 27.9735 21.6068C27.5492 21.2532 26.9187 21.3105 26.5651 21.7348L24.4255 24.3024C24.0788 24.7184 23.8839 24.9488 23.7282 25.0903L23.7223 25.0957L23.7159 25.0909C23.5481 24.964 23.3331 24.7522 22.9502 24.3693L22.3738 23.7929C21.9832 23.4024 21.3501 23.4024 20.9596 23.7929C20.569 24.1834 20.569 24.8166 20.9596 25.2071L21.536 25.7835L21.5768 25.8243C21.9033 26.1509 22.2174 26.4652 22.5096 26.6861C22.837 26.9337 23.2657 27.1665 23.8151 27.1415C24.3645 27.1166 24.7704 26.846 25.074 26.5698C25.345 26.3233 25.6294 25.9819 25.925 25.6271L25.925 25.6271L25.9619 25.5827L28.1016 23.0152Z" fill="#13AF82"/>
</svg>
