<svg width="34" height="44" viewBox="0 0 34 44" fill="none" xmlns="http://www.w3.org/2000/svg">
<rect x="5" y="16" width="28" height="13" rx="6.5" fill="#E9E9E9"/>
<circle cx="11.5" cy="22.5" r="5.5" fill="white"/>
<circle cx="6" cy="38" r="6" fill="white"/>
<path fill-rule="evenodd" clip-rule="evenodd" d="M17.25 22.5C17.25 25.6756 14.6756 28.25 11.5 28.25C8.32436 28.25 5.75 25.6756 5.75 22.5C5.75 19.3244 8.32436 16.75 11.5 16.75C14.6756 16.75 17.25 19.3244 17.25 22.5ZM8.23734 25.7627C7.84681 25.3721 7.84681 24.739 8.23734 24.3485L10.0858 22.5L8.23734 20.6515C7.84681 20.261 7.84681 19.6279 8.23734 19.2373C8.62786 18.8468 9.26102 18.8468 9.65155 19.2373L11.5 21.0858L13.3485 19.2373C13.739 18.8468 14.3721 18.8468 14.7627 19.2373C15.1532 19.6279 15.1532 20.261 14.7627 20.6516L12.9142 22.5L14.7627 24.3485C15.1532 24.739 15.1532 25.3721 14.7627 25.7627C14.3721 26.1532 13.739 26.1532 13.3485 25.7627L11.5 23.9142L9.65155 25.7627C9.26103 26.1532 8.62786 26.1532 8.23734 25.7627Z" fill="#FF5E5E"/>
<rect x="5" y="1" width="28" height="13" rx="6.5" fill="#E9E9E9"/>
<circle cx="26.5" cy="7.5" r="5.5" fill="white"/>
<path fill-rule="evenodd" clip-rule="evenodd" d="M26.5 13.125C29.6066 13.125 32.125 10.6066 32.125 7.5C32.125 4.3934 29.6066 1.875 26.5 1.875C23.3934 1.875 20.875 4.3934 20.875 7.5C20.875 10.6066 23.3934 13.125 26.5 13.125ZM29.7682 6.26518C30.1218 5.84091 30.0645 5.21034 29.6402 4.85678C29.2159 4.50321 28.5853 4.56054 28.2318 4.98482L26.5088 7.05236C26.1621 7.46842 25.9672 7.69877 25.8116 7.84031L25.8056 7.84569L25.7992 7.84087C25.6314 7.714 25.4165 7.50224 25.0335 7.11928L24.7071 6.79289C24.3166 6.40237 23.6834 6.40237 23.2929 6.79289C22.9024 7.18342 22.9024 7.81658 23.2929 8.20711L23.6193 8.5335L23.6601 8.57432C23.9866 8.90095 24.3007 9.21516 24.5929 9.43614C24.9203 9.68368 25.349 9.91646 25.8984 9.89153C26.4478 9.86661 26.8537 9.59598 27.1573 9.31982C27.4284 9.07329 27.7127 8.73193 28.0083 8.37709L28.0453 8.33273L29.7682 6.26518Z" fill="#13AF82"/>
</svg>
