<svg width="38" height="33" viewBox="0 0 38 33" fill="none" xmlns="http://www.w3.org/2000/svg">
<rect x="6.25" y="5" width="17.5" height="21.25" rx="2" stroke="#13AF82"/>
<path d="M11.25 11.25H18.75" stroke="#13AF82" stroke-linecap="round"/>
<path d="M11.25 16.25H18.75" stroke="#13AF82" stroke-linecap="round"/>
<path d="M11.25 21.25H16.25" stroke="#13AF82" stroke-linecap="round"/>
<path fill-rule="evenodd" clip-rule="evenodd" d="M30.3752 19.4474L31.5842 17.9255L31.5842 17.9255C31.7905 17.6658 31.8936 17.536 31.9647 17.4149C32.4162 16.6463 32.3046 15.6717 31.6909 15.0251C31.5942 14.9233 31.4644 14.8201 31.2048 14.6139L31.2047 14.6139L31.2047 14.6138C30.945 14.4076 30.8152 14.3044 30.6941 14.2333C29.9255 13.7818 28.9509 13.8935 28.3044 14.5071C28.2025 14.6038 28.0994 14.7336 27.8931 14.9933L27.8931 14.9933L26.6672 16.5365C27.616 17.8171 28.8959 18.8257 30.3752 19.4474ZM25.3876 18.1472L20.5828 24.1956C20.2089 24.6663 20.022 24.9016 19.9129 25.1769C19.8038 25.4522 19.7787 25.7518 19.7287 26.3508L19.5383 28.631C19.5101 28.969 19.496 29.138 19.6007 29.2212C19.7055 29.3044 19.8669 29.2525 20.1898 29.1485L22.3678 28.4473C22.94 28.263 23.2261 28.1709 23.4696 28.0024C23.7131 27.8338 23.9 27.5985 24.274 27.1278L29.0924 21.0623C27.6564 20.3705 26.3925 19.3735 25.3876 18.1472Z" fill="#13AF82"/>
</svg>
